<svg version="1.1" viewBox="0.0 0.0 506.31758530183725 157.0734908136483" fill="none" stroke="none" stroke-linecap="square" stroke-miterlimit="10" xmlns:xlink="http://www.w3.org/1999/xlink" xmlns="http://www.w3.org/2000/svg"><clipPath id="p.0"><path d="m0 0l506.3176 0l0 157.07349l-506.3176 0l0 -157.07349z" clip-rule="nonzero"/></clipPath><g clip-path="url(#p.0)"><path fill="#000000" fill-opacity="0.0" d="m0 0l506.3176 0l0 157.07349l-506.3176 0z" fill-rule="evenodd"/><path fill="#000000" fill-opacity="0.0" d="m35.496063 -17.569553l595.77954 0l0 131.46457l-595.77954 0z" fill-rule="evenodd"/><path fill="#980000" d="m51.214813 93.83044l0 -68.0625l21.96875 0q11.625 0 17.421875 4.0625q5.8125 4.0625 5.8125 12.28125q0 2.5625 -0.609375 4.984375q-0.59375 2.421875 -1.84375 4.453125q-1.25 2.03125 -3.125 3.59375q-1.875 1.5625 -4.421875 2.4375q2.546875 0.421875 4.859375 1.65625q2.328125 1.21875 4.0625 3.171875q1.75 1.9531212 2.765625 4.609371q1.015625 2.640625 1.015625 5.921875q0 10.421875 -6.984375 15.65625q-6.96875 5.234375 -20.140625 5.234375l-20.78125 0zm31.875 -49.468746q0 -1.9375 -0.625 -3.5q-0.625 -1.5625 -2.015625 -2.65625q-1.375 -1.09375 -3.546875 -1.6875q-2.15625 -0.59375 -5.21875 -0.59375l-7.765625 0l0 18.015625l7.765625 0q3.125 0 5.28125 -0.75q2.15625 -0.765625 3.53125 -2.09375q1.390625 -1.328125 1.984375 -3.046875q0.609375 -1.71875 0.609375 -3.6875zm-10.21875 38.999996q3.078125 0 5.390625 -0.78125q2.328125 -0.78125 3.890625 -2.15625q1.5625 -1.390625 2.359375 -3.265625q0.8125 -1.875 0.8125 -4.0q0 -4.4375 -3.3125 -6.921875q-3.296875 -2.4999962 -10.125 -2.4999962l-7.96875 0l0 19.624996l8.953125 0z" fill-rule="nonzero"/><path fill="#980000" d="m108.995544 50.627316l0 -7.859375l32.265625 0l0 7.859375l-11.25 0l0 35.26562l11.25 0l0 7.9375l-32.265625 0l0 -7.9375l11.25 0l0 -35.26562l-11.25 0zm60.359375 21.593746l0 -7.921875l18.15625 0l0 27.21875q-3.515625 1.640625 -7.34375 2.421875q-3.828125 0.796875 -8.3125 0.796875q-5.3125 0 -9.5625 -1.640625q-4.234375 -1.65625 -7.203125 -4.890625q-2.96875 -3.25 -4.546875 -8.046875q-1.578125 -4.8125 -1.578125 -11.140625q0 -6.359371 1.65625 -11.390621q1.65625 -5.046875 4.84375 -8.546875q3.1875 -3.5 7.8125 -5.328125q4.625 -1.84375 10.5625 -1.84375q3.515625 0 6.859375 0.609375q3.34375 0.609375 6.65625 1.625l0 9.484375q-2.890625 -1.359375 -6.390625 -2.234375q-3.484375 -0.890625 -7.046875 -0.890625q-3.59375 0 -6.34375 1.25q-2.75 1.25 -4.609375 3.5625q-1.859375 2.296875 -2.8125 5.65625q-0.953125 3.3593712 -0.953125 7.578121q0 4.0625 0.734375 7.328125q0.75 3.265625 2.40625 5.546875q1.65625 2.28125 4.265625 3.5q2.625 1.203125 6.375 1.203125q0.90625 0 1.5625 -0.046875q0.671875 -0.0625 1.25 -0.171875q0.59375 -0.125 1.109375 -0.28125q0.53125 -0.15625 1.125 -0.359375l0 -13.046875l-8.671875 0z" fill-rule="nonzero"/><path fill="#073763" d="m245.37054 47.42419q0 5.3125 -1.78125 9.828125q-1.765625 4.5 -5.25 7.781246q-3.484375 3.28125 -8.703125 5.109375q-5.203125 1.8125 -12.078125 1.8125l-6.5 0l0 21.875l-12.921875 0l0 -68.0625l19.9375 0q6.625 0 11.703125 1.4375q5.078125 1.421875 8.53125 4.1875q3.46875 2.75 5.265625 6.796875q1.796875 4.03125 1.796875 9.234375zm-13.4375 0.890625q0 -2.703125 -0.859375 -4.921875q-0.859375 -2.21875 -2.609375 -3.78125q-1.734375 -1.5625 -4.390625 -2.390625q-2.65625 -0.828125 -6.296875 -0.828125l-6.71875 0l0 24.9375l7.125 0q3.328125 0 5.875 -0.90625q2.5625 -0.90625 4.296875 -2.625q1.75 -1.71875 2.65625 -4.109375q0.921875 -2.40625 0.921875 -5.375z" fill-rule="nonzero"/><path fill="#073763" d="m282.94815 93.83044l-2.8125 -10.078125l-17.8125 0l-2.890625 10.078125l-9.53125 0l15.125 -51.062496l13.4375 0l15.109375 51.062496l-10.625 0zm-11.59375 -41.687496l-6.71875 23.749996l13.359375 0l-6.640625 -23.749996zm49.296875 -1.359375l0 43.04687l-9.84375 0l0 -43.04687l-13.984375 0l0 -8.015625l37.8125 0l0 8.015625l-13.984375 0zm24.25 43.04687l0 -51.062496l30.75 0l0 8.125l-20.984375 0l0 12.703125l20.0 0l0 7.921871l-20.0 0l0 14.1875l20.984375 0l0 8.125l-30.75 0zm65.703125 0l-13.671875 -30.468746l-2.8125 -6.5625l0 21.171871l0 15.859375l-8.75 0l0 -51.062496l11.796875 0l13.953125 30.671871l2.453125 5.96875l0 -22.531246l0 -14.109375l8.75 0l0 51.062496l-11.71875 0zm42.0 -43.04687l0 43.04687l-9.84375 0l0 -43.04687l-13.984375 0l0 -8.015625l37.8125 0l0 8.015625l-13.984375 0z" fill-rule="nonzero"/><path fill="#000000" fill-opacity="0.0" d="m-14.95538 -43.85827l98.897644 0l0 98.897644l-98.897644 0z" fill-rule="evenodd"/><path fill="#000000" d="m4.9039946 150.5386l0 -146.32812l31.015625 0l0 11.640625l-16.953127 0l0 123.04688l16.953127 0l0 11.640625l-31.015625 0z" fill-rule="nonzero"/><path fill="#000000" fill-opacity="0.0" d="m457.04462 -43.85827l98.897644 0l0 98.897644l-98.897644 0z" fill-rule="evenodd"/><path fill="#000000" d="m500.10712 150.5386l-31.015625 0l0 -11.640625l16.953125 0l0 -123.04688l-16.953125 0l0 -11.640625l31.015625 0l0 146.32812z" fill-rule="nonzero"/><path fill="#000000" fill-opacity="0.0" d="m62.792652 105.72966l412.47244 0l0 65.13385l-412.47244 0z" fill-rule="evenodd"/><path fill="#222222" d="m87.37077 139.91841q0 1.453125 -0.59375 2.546875q-0.59375 1.09375 -1.65625 1.828125q-1.0625 0.71875 -2.5625 1.078125q-1.484375 0.359375 -3.28125 0.359375q-0.8125 0 -1.625 -0.0625q-0.796875 -0.0625 -1.546875 -0.15625q-0.734375 -0.09375 -1.390625 -0.21875q-0.65625 -0.125 -1.1875 -0.265625l0 -2.6875q1.171875 0.4375 2.625 0.6875q1.46875 0.25 3.328125 0.25q1.34375 0 2.28125 -0.203125q0.953125 -0.21875 1.546875 -0.625q0.609375 -0.421875 0.875 -1.015625q0.28125 -0.59375 0.28125 -1.359375q0 -0.828125 -0.46875 -1.40625q-0.453125 -0.59375 -1.203125 -1.046875q-0.75 -0.46875 -1.71875 -0.84375q-0.953125 -0.390625 -1.953125 -0.796875q-1.0 -0.40625 -1.96875 -0.875q-0.953125 -0.484375 -1.703125 -1.125q-0.75 -0.65625 -1.21875 -1.53125q-0.453125 -0.875 -0.453125 -2.078125q0 -1.046875 0.4375 -2.0625q0.4375 -1.015625 1.359375 -1.796875q0.921875 -0.796875 2.359375 -1.28125q1.453125 -0.484375 3.453125 -0.484375q0.515625 0 1.109375 0.046875q0.609375 0.046875 1.21875 0.140625q0.625 0.078125 1.21875 0.1875q0.609375 0.109375 1.125 0.234375l0 2.5q-1.203125 -0.34375 -2.40625 -0.515625q-1.203125 -0.1875 -2.328125 -0.1875q-2.390625 0 -3.515625 0.796875q-1.125 0.796875 -1.125 2.140625q0 0.828125 0.453125 1.421875q0.46875 0.59375 1.21875 1.0625q0.75 0.46875 1.703125 0.859375q0.96875 0.375 1.96875 0.78125q1.0 0.40625 1.953125 0.890625q0.96875 0.484375 1.71875 1.15625q0.75 0.65625 1.203125 1.546875q0.46875 0.890625 0.46875 2.109375zm17.125 5.53125l-2.4375 0l-0.09375 -2.53125q-0.703125 0.8125 -1.34375 1.359375q-0.625 0.53125 -1.25 0.859375q-0.625 0.328125 -1.265625 0.453125q-0.625 0.140625 -1.328125 0.140625q-2.421875 0 -3.65625 -1.421875q-1.234375 -1.421875 -1.234375 -4.296875l0 -10.25l2.71875 0l0 10.03125q0 3.609375 2.71875 3.609375q0.5 0 0.96875 -0.140625q0.484375 -0.15625 1.0 -0.515625q0.53125 -0.375 1.125 -1.0q0.609375 -0.625 1.359375 -1.578125l0 -10.40625l2.71875 0l0 15.6875zm16.171875 0l0 -11.265625q0 -0.734375 -0.0625 -1.203125q-0.046875 -0.46875 -0.171875 -0.734375q-0.109375 -0.28125 -0.296875 -0.390625q-0.171875 -0.109375 -0.4375 -0.109375q-0.3125 0 -0.578125 0.1875q-0.265625 0.1875 -0.578125 0.609375q-0.296875 0.421875 -0.671875 1.125q-0.359375 0.6875 -0.859375 1.703125l0 10.078125l-2.484375 0l0 -10.96875q0 -0.859375 -0.0625 -1.390625q-0.046875 -0.53125 -0.171875 -0.828125q-0.109375 -0.296875 -0.296875 -0.40625q-0.1875 -0.109375 -0.453125 -0.109375q-0.28125 0 -0.53125 0.15625q-0.25 0.15625 -0.5625 0.5625q-0.296875 0.40625 -0.671875 1.109375q-0.375 0.703125 -0.890625 1.796875l0 10.078125l-2.5 0l0 -15.6875l2.078125 0l0.125 2.984375q0.40625 -0.890625 0.78125 -1.515625q0.390625 -0.625 0.796875 -1.0q0.40625 -0.390625 0.859375 -0.5625q0.46875 -0.1875 1.03125 -0.1875q1.265625 0 1.921875 0.828125q0.65625 0.828125 0.65625 2.5625q0.375 -0.8125 0.734375 -1.4375q0.359375 -0.640625 0.765625 -1.0625q0.421875 -0.4375 0.921875 -0.65625q0.5 -0.234375 1.15625 -0.234375q2.953125 0 2.953125 4.546875l0 11.421875l-2.5 0zm17.59375 0l0 -11.265625q0 -0.734375 -0.0625 -1.203125q-0.046875 -0.46875 -0.171875 -0.734375q-0.109375 -0.28125 -0.296875 -0.390625q-0.171875 -0.109375 -0.4375 -0.109375q-0.3125 0 -0.578125 0.1875q-0.265625 0.1875 -0.578125 0.609375q-0.296875 0.421875 -0.671875 1.125q-0.359375 0.6875 -0.859375 1.703125l0 10.078125l-2.484375 0l0 -10.96875q0 -0.859375 -0.0625 -1.390625q-0.046875 -0.53125 -0.171875 -0.828125q-0.109375 -0.296875 -0.296875 -0.40625q-0.1875 -0.109375 -0.453125 -0.109375q-0.28125 0 -0.53125 0.15625q-0.25 0.15625 -0.5625 0.5625q-0.296875 0.40625 -0.671875 1.109375q-0.375 0.703125 -0.890625 1.796875l0 10.078125l-2.5 0l0 -15.6875l2.078125 0l0.125 2.984375q0.40625 -0.890625 0.78125 -1.515625q0.390625 -0.625 0.796875 -1.0q0.40625 -0.390625 0.859375 -0.5625q0.46875 -0.1875 1.03125 -0.1875q1.265625 0 1.921875 0.828125q0.65625 0.828125 0.65625 2.5625q0.375 -0.8125 0.734375 -1.4375q0.359375 -0.640625 0.765625 -1.0625q0.421875 -0.4375 0.921875 -0.65625q0.5 -0.234375 1.15625 -0.234375q2.953125 0 2.953125 4.546875l0 11.421875l-2.5 0zm16.484375 0l-0.0625 -2.109375q-1.28125 1.265625 -2.609375 1.828125q-1.3125 0.5625 -2.765625 0.5625q-1.34375 0 -2.296875 -0.34375q-0.953125 -0.34375 -1.578125 -0.9375q-0.609375 -0.609375 -0.90625 -1.421875q-0.28125 -0.8125 -0.28125 -1.765625q0 -2.359375 1.75 -3.6875q1.765625 -1.34375 5.203125 -1.34375l3.25 0l0 -1.375q0 -1.390625 -0.890625 -2.21875q-0.890625 -0.84375 -2.71875 -0.84375q-1.328125 0 -2.625 0.296875q-1.28125 0.296875 -2.65625 0.84375l0 -2.453125q0.515625 -0.1875 1.140625 -0.359375q0.640625 -0.1875 1.34375 -0.328125q0.703125 -0.140625 1.46875 -0.21875q0.765625 -0.09375 1.546875 -0.09375q1.421875 0 2.5625 0.3125q1.140625 0.3125 1.921875 0.953125q0.796875 0.640625 1.21875 1.609375q0.421875 0.96875 0.421875 2.28125l0 10.8125l-2.4375 0zm-0.296875 -7.140625l-3.453125 0q-1.015625 0 -1.75 0.203125q-0.734375 0.203125 -1.203125 0.578125q-0.46875 0.375 -0.703125 0.90625q-0.21875 0.515625 -0.21875 1.171875q0 0.453125 0.140625 0.875q0.140625 0.40625 0.453125 0.734375q0.3125 0.3125 0.8125 0.5q0.5 0.1875 1.21875 0.1875q0.9375 0 2.140625 -0.5625q1.21875 -0.578125 2.5625 -1.8125l0 -2.78125zm8.453125 -8.546875l2.484375 0l0.078125 2.890625q1.390625 -1.671875 2.734375 -2.421875q1.359375 -0.75 2.734375 -0.75q2.4375 0 3.6875 1.578125q1.265625 1.578125 1.171875 4.6875l-2.75 0q0.046875 -2.0625 -0.609375 -2.984375q-0.640625 -0.9375 -1.890625 -0.9375q-0.546875 0 -1.109375 0.203125q-0.546875 0.1875 -1.140625 0.625q-0.578125 0.421875 -1.234375 1.09375q-0.65625 0.671875 -1.40625 1.625l0 10.078125l-2.75 0l0 -15.6875zm22.296875 2.25l-4.640625 0l0 -2.25l7.390625 0l0 13.421875l4.671875 0l0 2.265625l-12.578125 0l0 -2.265625l5.15625 0l0 -11.171875zm0.953125 -8.828125q0.453125 0 0.84375 0.171875q0.390625 0.15625 0.671875 0.453125q0.296875 0.296875 0.453125 0.6875q0.171875 0.375 0.171875 0.828125q0 0.4375 -0.171875 0.828125q-0.15625 0.390625 -0.453125 0.6875q-0.28125 0.296875 -0.671875 0.46875q-0.390625 0.15625 -0.84375 0.15625q-0.453125 0 -0.84375 -0.15625q-0.390625 -0.171875 -0.6875 -0.46875q-0.28125 -0.296875 -0.453125 -0.6875q-0.15625 -0.390625 -0.15625 -0.828125q0 -0.453125 0.15625 -0.828125q0.171875 -0.390625 0.453125 -0.6875q0.296875 -0.296875 0.6875 -0.453125q0.390625 -0.171875 0.84375 -0.171875zm24.0 22.265625l-12.640625 0l0 -1.953125l8.859375 -11.453125l-8.640625 0l0 -2.28125l11.90625 0l0 2.125l-8.703125 11.265625l9.21875 0l0 2.296875zm14.96875 0l-0.0625 -2.109375q-1.28125 1.265625 -2.609375 1.828125q-1.3125 0.5625 -2.765625 0.5625q-1.34375 0 -2.296875 -0.34375q-0.953125 -0.34375 -1.578125 -0.9375q-0.609375 -0.609375 -0.90625 -1.421875q-0.28125 -0.8125 -0.28125 -1.765625q0 -2.359375 1.75 -3.6875q1.765625 -1.34375 5.203125 -1.34375l3.25 0l0 -1.375q0 -1.390625 -0.890625 -2.21875q-0.890625 -0.84375 -2.71875 -0.84375q-1.328125 0 -2.625 0.296875q-1.28125 0.296875 -2.65625 0.84375l0 -2.453125q0.515625 -0.1875 1.140625 -0.359375q0.640625 -0.1875 1.34375 -0.328125q0.703125 -0.140625 1.46875 -0.21875q0.765625 -0.09375 1.546875 -0.09375q1.421875 0 2.5625 0.3125q1.140625 0.3125 1.921875 0.953125q0.796875 0.640625 1.21875 1.609375q0.421875 0.96875 0.421875 2.28125l0 10.8125l-2.4375 0zm-0.296875 -7.140625l-3.453125 0q-1.015625 0 -1.75 0.203125q-0.734375 0.203125 -1.203125 0.578125q-0.46875 0.375 -0.703125 0.90625q-0.21875 0.515625 -0.21875 1.171875q0 0.453125 0.140625 0.875q0.140625 0.40625 0.453125 0.734375q0.3125 0.3125 0.8125 0.5q0.5 0.1875 1.21875 0.1875q0.9375 0 2.140625 -0.5625q1.21875 -0.578125 2.5625 -1.8125l0 -2.78125zm20.453125 6.921875q-0.921875 0.234375 -1.90625 0.328125q-0.984375 0.109375 -2.0 0.109375q-2.953125 0 -4.40625 -1.328125q-1.453125 -1.34375 -1.453125 -4.109375l0 -8.1875l-4.390625 0l0 -2.28125l4.390625 0l0 -4.3125l2.71875 -0.703125l0 5.015625l7.046875 0l0 2.28125l-7.046875 0l0 7.96875q0 1.6875 0.890625 2.53125q0.90625 0.828125 2.65625 0.828125q0.75 0 1.640625 -0.109375q0.890625 -0.125 1.859375 -0.375l0 2.34375zm10.296875 -13.21875l-4.640625 0l0 -2.25l7.3906403 0l0 13.421875l4.671875 0l0 2.265625l-12.57814 0l0 -2.265625l5.15625 0l0 -11.171875zm0.95314026 -8.828125q0.453125 0 0.84375 0.171875q0.390625 0.15625 0.671875 0.453125q0.296875 0.296875 0.453125 0.6875q0.171875 0.375 0.171875 0.828125q0 0.4375 -0.171875 0.828125q-0.15625 0.390625 -0.453125 0.6875q-0.28125 0.296875 -0.671875 0.46875q-0.390625 0.15625 -0.84375 0.15625q-0.453125 0 -0.84376526 -0.15625q-0.390625 -0.171875 -0.6875 -0.46875q-0.28125 -0.296875 -0.453125 -0.6875q-0.15625 -0.390625 -0.15625 -0.828125q0 -0.453125 0.15625 -0.828125q0.171875 -0.390625 0.453125 -0.6875q0.296875 -0.296875 0.6875 -0.453125q0.39064026 -0.171875 0.84376526 -0.171875zm24.953125 14.296875q0 1.828125 -0.515625 3.359375q-0.515625 1.515625 -1.484375 2.609375q-0.96875 1.078125 -2.359375 1.6875q-1.390625 0.59375 -3.15625 0.59375q-1.6875 0 -3.03125 -0.515625q-1.328125 -0.53125 -2.265625 -1.546875q-0.921875 -1.015625 -1.421875 -2.515625q-0.484375 -1.5 -0.484375 -3.453125q0 -1.828125 0.515625 -3.328125q0.515625 -1.515625 1.484375 -2.59375q0.96875 -1.09375 2.359375 -1.6875q1.390625 -0.609375 3.15625 -0.609375q1.6875 0 3.015625 0.53125q1.34375 0.515625 2.265625 1.53125q0.9375 1.0 1.421875 2.5q0.5 1.5 0.5 3.4375zm-2.78125 0.125q0 -1.453125 -0.328125 -2.53125q-0.3125 -1.09375 -0.90625 -1.8125q-0.59375 -0.734375 -1.453125 -1.09375q-0.84375 -0.375 -1.890625 -0.375q-1.21875 0 -2.09375 0.484375q-0.859375 0.46875 -1.421875 1.265625q-0.546875 0.796875 -0.8125 1.859375q-0.25 1.046875 -0.25 2.203125q0 1.453125 0.3125 2.546875q0.328125 1.09375 0.921875 1.828125q0.59375 0.71875 1.4375 1.09375q0.84375 0.359375 1.90625 0.359375q1.21875 0 2.078125 -0.46875q0.875 -0.484375 1.421875 -1.28125q0.5625 -0.796875 0.8125 -1.84375q0.265625 -1.0625 0.265625 -2.234375zm6.71875 -7.84375l2.421875 0l0.109375 2.53125q0.6875 -0.8125 1.328125 -1.34375q0.640625 -0.546875 1.25 -0.875q0.625 -0.328125 1.265625 -0.453125q0.640625 -0.140625 1.328125 -0.140625q2.421875 0 3.65625 1.4375q1.25 1.421875 1.25 4.296875l0 10.234375l-2.71875 0l0 -10.015625q0 -1.84375 -0.6875 -2.71875q-0.6875 -0.890625 -2.046875 -0.890625q-0.5 0 -0.984375 0.15625q-0.46875 0.140625 -0.984375 0.515625q-0.515625 0.359375 -1.125 0.984375q-0.59375 0.625 -1.34375 1.5625l0 10.40625l-2.71875 0l0 -15.6875zm49.140625 5.25q0 1.46875 -0.234375 2.8125q-0.21875 1.34375 -0.71875 2.5q-0.5 1.15625 -1.296875 2.109375q-0.796875 0.9375 -1.953125 1.609375q-1.15625 0.671875 -2.6875 1.046875q-1.53125 0.359375 -3.484375 0.359375l-4.375 0l0 -20.421875l5.265625 0q4.78125 0 7.125 2.46875q2.359375 2.453125 2.359375 7.515625zm-2.921875 0.203125q0 -2.171875 -0.40625 -3.671875q-0.40625 -1.5 -1.234375 -2.421875q-0.828125 -0.921875 -2.078125 -1.328125q-1.25 -0.421875 -2.9375 -0.421875l-2.390625 0l0 15.671875l2.078125 0q6.96875 0 6.96875 -7.828125zm16.640625 10.234375l-0.0625 -2.109375q-1.28125 1.265625 -2.609375 1.828125q-1.3125 0.5625 -2.765625 0.5625q-1.34375 0 -2.296875 -0.34375q-0.953125 -0.34375 -1.578125 -0.9375q-0.609375 -0.609375 -0.90625 -1.421875q-0.28125 -0.8125 -0.28125 -1.765625q0 -2.359375 1.75 -3.6875q1.765625 -1.34375 5.203125 -1.34375l3.25 0l0 -1.375q0 -1.390625 -0.890625 -2.21875q-0.890625 -0.84375 -2.71875 -0.84375q-1.328125 0 -2.625 0.296875q-1.28125 0.296875 -2.65625 0.84375l0 -2.453125q0.515625 -0.1875 1.140625 -0.359375q0.640625 -0.1875 1.34375 -0.328125q0.703125 -0.140625 1.46875 -0.21875q0.765625 -0.09375 1.546875 -0.09375q1.421875 0 2.5625 0.3125q1.140625 0.3125 1.921875 0.953125q0.796875 0.640625 1.21875 1.609375q0.421875 0.96875 0.421875 2.28125l0 10.8125l-2.4375 0zm-0.296875 -7.140625l-3.453125 0q-1.015625 0 -1.75 0.203125q-0.734375 0.203125 -1.203125 0.578125q-0.46875 0.375 -0.703125 0.90625q-0.21875 0.515625 -0.21875 1.171875q0 0.453125 0.140625 0.875q0.140625 0.40625 0.453125 0.734375q0.3125 0.3125 0.8125 0.5q0.5 0.1875 1.21875 0.1875q0.9375 0 2.140625 -0.5625q1.21875 -0.578125 2.5625 -1.8125l0 -2.78125zm20.453125 6.921875q-0.921875 0.234375 -1.90625 0.328125q-0.984375 0.109375 -2.0 0.109375q-2.953125 0 -4.40625 -1.328125q-1.453125 -1.34375 -1.453125 -4.109375l0 -8.1875l-4.390625 0l0 -2.28125l4.390625 0l0 -4.3125l2.71875 -0.703125l0 5.015625l7.046875 0l0 2.28125l-7.046875 0l0 7.96875q0 1.6875 0.890625 2.53125q0.90625 0.828125 2.65625 0.828125q0.75 0 1.640625 -0.109375q0.890625 -0.125 1.859375 -0.375l0 2.34375zm15.03125 0.21875l-0.0625 -2.109375q-1.28125 1.265625 -2.609375 1.828125q-1.3125 0.5625 -2.765625 0.5625q-1.34375 0 -2.296875 -0.34375q-0.953125 -0.34375 -1.578125 -0.9375q-0.609375 -0.609375 -0.90625 -1.421875q-0.28125 -0.8125 -0.28125 -1.765625q0 -2.359375 1.75 -3.6875q1.765625 -1.34375 5.203125 -1.34375l3.25 0l0 -1.375q0 -1.390625 -0.890625 -2.21875q-0.890625 -0.84375 -2.71875 -0.84375q-1.328125 0 -2.625 0.296875q-1.28125 0.296875 -2.65625 0.84375l0 -2.453125q0.515625 -0.1875 1.140625 -0.359375q0.640625 -0.1875 1.34375 -0.328125q0.703125 -0.140625 1.46875 -0.21875q0.765625 -0.09375 1.546875 -0.09375q1.421875 0 2.5625 0.3125q1.140625 0.3125 1.921875 0.953125q0.796875 0.640625 1.21875 1.609375q0.421875 0.96875 0.421875 2.28125l0 10.8125l-2.4375 0zm-0.296875 -7.140625l-3.453125 0q-1.015625 0 -1.75 0.203125q-0.734375 0.203125 -1.203125 0.578125q-0.46875 0.375 -0.703125 0.90625q-0.21875 0.515625 -0.21875 1.171875q0 0.453125 0.140625 0.875q0.140625 0.40625 0.453125 0.734375q0.3125 0.3125 0.8125 0.5q0.5 0.1875 1.21875 0.1875q0.9375 0 2.140625 -0.5625q1.21875 -0.578125 2.5625 -1.8125l0 -2.78125zm20.234375 2.859375q0 0.828125 -0.28125 1.484375q-0.28125 0.65625 -0.765625 1.171875q-0.484375 0.5 -1.125 0.859375q-0.640625 0.359375 -1.375 0.59375q-0.71875 0.234375 -1.484375 0.34375q-0.765625 0.109375 -1.5 0.109375q-1.59375 0 -2.9375 -0.140625q-1.328125 -0.140625 -2.609375 -0.453125l0 -2.5q1.375 0.390625 2.734375 0.59375q1.359375 0.203125 2.703125 0.203125q1.953125 0 2.890625 -0.53125q0.9375 -0.53125 0.9375 -1.515625q0 -0.421875 -0.15625 -0.75q-0.140625 -0.34375 -0.53125 -0.640625q-0.390625 -0.3125 -1.21875 -0.640625q-0.8125 -0.328125 -2.234375 -0.75q-1.0625 -0.3125 -1.96875 -0.703125q-0.890625 -0.40625 -1.546875 -0.953125q-0.65625 -0.546875 -1.03125 -1.28125q-0.375 -0.734375 -0.375 -1.734375q0 -0.65625 0.296875 -1.4375q0.3125 -0.78125 1.046875 -1.453125q0.734375 -0.671875 1.984375 -1.109375q1.25 -0.453125 3.125 -0.453125q0.921875 0 2.046875 0.109375q1.125 0.09375 2.34375 0.34375l0 2.421875q-1.28125 -0.3125 -2.4375 -0.453125q-1.140625 -0.15625 -1.984375 -0.15625q-1.015625 0 -1.71875 0.15625q-0.6875 0.15625 -1.125 0.4375q-0.421875 0.265625 -0.609375 0.640625q-0.1875 0.359375 -0.1875 0.78125q0 0.421875 0.15625 0.765625q0.171875 0.34375 0.609375 0.671875q0.453125 0.3125 1.25 0.640625q0.796875 0.3125 2.078125 0.6875q1.390625 0.40625 2.34375 0.859375q0.953125 0.4375 1.546875 0.984375q0.59375 0.546875 0.84375 1.234375q0.265625 0.6875 0.265625 1.5625zm18.421875 -4.390625q0 0.578125 -0.015625 0.96875q-0.015625 0.390625 -0.046875 0.734375l-11.015625 0q0 2.40625 1.34375 3.703125q1.34375 1.28125 3.875 1.28125q0.6875 0 1.375 -0.046875q0.6875 -0.0625 1.328125 -0.15625q0.640625 -0.09375 1.21875 -0.203125q0.59375 -0.125 1.09375 -0.265625l0 2.234375q-1.109375 0.3125 -2.515625 0.5q-1.390625 0.203125 -2.890625 0.203125q-2.015625 0 -3.46875 -0.546875q-1.453125 -0.546875 -2.390625 -1.578125q-0.921875 -1.046875 -1.375 -2.546875q-0.4375 -1.515625 -0.4375 -3.421875q0 -1.65625 0.46875 -3.125q0.484375 -1.484375 1.390625 -2.59375q0.921875 -1.125 2.25 -1.78125q1.328125 -0.65625 3.015625 -0.65625q1.640625 0 2.90625 0.515625q1.265625 0.515625 2.125 1.46875q0.875 0.9375 1.3125 2.296875q0.453125 1.34375 0.453125 3.015625zm-2.828125 -0.390625q0.046875 -1.046875 -0.203125 -1.90625q-0.25 -0.875 -0.78125 -1.5q-0.515625 -0.625 -1.296875 -0.96875q-0.78125 -0.359375 -1.8125 -0.359375q-0.890625 0 -1.625 0.34375q-0.734375 0.34375 -1.265625 0.96875q-0.53125 0.625 -0.859375 1.5q-0.328125 0.875 -0.40625 1.921875l8.25 0zm19.8125 8.84375q-0.921875 0.234375 -1.90625 0.328125q-0.984375 0.109375 -2.0 0.109375q-2.953125 0 -4.40625 -1.328125q-1.453125 -1.34375 -1.453125 -4.109375l0 -8.1875l-4.390625 0l0 -2.28125l4.390625 0l0 -4.3125l2.71875 -0.703125l0 5.015625l7.046875 0l0 2.28125l-7.046875 0l0 7.96875q0 1.6875 0.890625 2.53125q0.90625 0.828125 2.65625 0.828125q0.75 0 1.640625 -0.109375q0.890625 -0.125 1.859375 -0.375l0 2.34375z" fill-rule="nonzero"/></g></svg>